Coordinates
version=1
nRows=13
nColumns=40
inDegrees=yes

Units are S.I. units (second, meters, Newtons, ...)
If the header above contains a line with 'inDegrees', this indicates whether rotational values are in degrees (yes) or radians (no).

endheader
time	pelvis_tilt	pelvis_list	pelvis_rotation	pelvis_tx	pelvis_ty	pelvis_tz	hip_flexion_r	hip_adduction_r	hip_rotation_r	knee_angle_r	knee_angle_r_beta	ankle_angle_r	subtalar_angle_r	mtp_angle_r	hip_flexion_l	hip_adduction_l	hip_rotation_l	knee_angle_l	knee_angle_l_beta	ankle_angle_l	subtalar_angle_l	mtp_angle_l	lumbar_extension	lumbar_bending	lumbar_rotation	arm_flex_r	arm_add_r	arm_rot_r	elbow_flex_r	pro_sup_r	wrist_flex_r	wrist_dev_r	arm_flex_l	arm_add_l	arm_rot_l	elbow_flex_l	pro_sup_l	wrist_flex_l	wrist_dev_l
      0.56000000	     -3.45224271	      8.30170708	    -89.91253558	      0.18785352	      0.88100332	      0.07493031	    -17.29625639	      5.80352285	      3.51270464	     -7.37542015	     -0.12872537	     13.45030655	      0.00000000	      0.00000000	     40.69345585	     -4.64494768	      0.73956594	      7.64260317	      0.13338859	      2.83004204	     -0.00000000	     -0.00000000	     -4.22748898	      2.99920642	     -2.62747798	      0.00000000	     -0.00000000	     -0.00000000	      0.00000000	      0.00000000	     -0.00000000	     -0.00000000	     -0.00000000	     -0.00000000	     -0.00000000	      0.00000000	      0.00000000	     -0.00000000	      0.00000000
      0.57000000	     -3.69776873	      8.41221221	    -89.91307804	      0.18846008	      0.87677457	      0.09315097	    -18.23969624	      5.95165135	      3.83386013	     -6.86924583	     -0.11989096	     13.90564012	     -0.00000000	      0.00000000	     40.83251340	     -4.62088189	      2.09344226	      6.80822023	      0.11882586	      3.13049325	      0.00000000	      0.00000000	     -3.98475868	      3.10393711	     -2.62081495	     -0.00000000	      0.00000000	      0.00000000	      0.00000000	      0.00000000	     -0.00000000	      0.00000000	      0.00000000	     -0.00000000	     -0.00000000	      0.00000000	      0.00000000	     -0.00000000	     -0.00000000
      0.58000000	     -3.80438555	      8.49052907	    -89.91493001	      0.18923497	      0.87302511	      0.11146113	    -18.99118900	      5.91931652	      4.11461563	     -5.94056752	     -0.10368246	     14.25798779	      0.00000000	      0.00000000	     40.94419035	     -4.43075466	      3.29788504	      6.68899360	      0.11674496	      3.20144806	      0.00000000	      0.00000000	     -3.77702376	      3.04898324	     -2.65384606	      0.00000000	      0.00000000	      0.00000000	      0.00000000	      0.00000000	      0.00000000	      0.00000000	      0.00000000	      0.00000000	      0.00000000	      0.00000000	      0.00000000	      0.00000000	      0.00000000
      0.59000000	     -3.84631106	      8.56900527	    -89.91612694	      0.19010158	      0.86974012	      0.12984958	    -19.56747256	      5.79076455	      4.42304862	     -4.72709523	     -0.08250338	     14.41892907	      0.00000000	      0.00000000	     41.07071793	     -4.14697778	      4.33514195	      7.19260086	      0.12553457	      2.94989971	      0.00000000	      0.00000000	     -3.57114750	      2.91468291	     -2.70075935	      0.00000000	      0.00000000	      0.00000000	      0.00000000	      0.00000000	      0.00000000	      0.00000000	      0.00000000	      0.00000000	      0.00000000	      0.00000000	      0.00000000	      0.00000000	      0.00000000
      0.60000000	     -3.77765589	      8.67948835	    -89.91788415	      0.19108122	      0.86692274	      0.14836213	    -19.93497195	      5.52244808	      4.67576946	     -3.29176468	     -0.05745213	     13.96263095	      0.00000000	      0.00000000	     41.27542301	     -3.73460326	      5.00279377	      8.27959790	      0.14450624	      2.39939417	      0.00000000	      0.00000000	     -3.31175333	      2.63874041	     -2.76328943	      0.00000000	      0.00000000	      0.00000000	      0.00000000	      0.00000000	      0.00000000	      0.00000000	      0.00000000	      0.00000000	      0.00000000	      0.00000000	      0.00000000	      0.00000000	      0.00000000
      0.61000000	     -3.79179692	      8.64767071	    -89.91718428	      0.19207295	      0.86489147	      0.16696727	    -20.22253986	      5.33279799	      4.99461639	     -1.43724950	     -0.02508474	     13.95695624	      0.00000000	      0.00000000	     41.27796411	     -3.38870848	      5.74971782	      9.60048934	      0.16756015	      0.99117188	      0.00000000	      0.00000000	     -3.23022822	      2.46467025	     -2.79260605	      0.00000000	      0.00000000	      0.00000000	      0.00000000	      0.00000000	      0.00000000	      0.00000000	      0.00000000	      0.00000000	      0.00000000	      0.00000000	      0.00000000	      0.00000000	      0.00000000
      0.62000000	     -3.75225390	      8.60058389	    -89.91690337	      0.19308972	      0.86348592	      0.18574731	    -20.29457929	      5.07369920	      5.17444171	      0.68121998	      0.01188953	     13.12192362	      0.00000000	      0.00000000	     41.31048207	     -3.01754677	      6.09750425	     11.27753997	      0.19683020	     -0.68427889	      0.00000000	      0.00000000	     -3.14386455	      2.21629795	     -2.81943632	      0.00000000	      0.00000000	      0.00000000	      0.00000000	      0.00000000	      0.00000000	      0.00000000	      0.00000000	      0.00000000	      0.00000000	      0.00000000	      0.00000000	      0.00000000	      0.00000000
      0.63000000	     -3.74647052	      8.47626055	    -89.91550476	      0.19405010	      0.86284733	      0.20464755	    -20.15276037	      4.84625830	      5.21702543	      3.18675489	      0.05561937	     11.82439932	     -0.00000000	      0.00000000	     41.27204755	     -2.71798902	      6.31942705	     13.15390959	      0.22957903	     -2.67464930	      0.00000000	     -0.00000000	     -3.13782570	      1.99507501	     -2.83339679	     -0.00000000	      0.00000000	     -0.00000000	      0.00000000	      0.00000000	      0.00000000	      0.00000000	      0.00000000	     -0.00000000	      0.00000000	      0.00000000	      0.00000000	     -0.00000000	     -0.00000000
      0.64000000	     -3.80547479	      8.23383272	    -89.91376207	      0.19497735	      0.86304841	      0.22370493	    -19.79066980	      4.67491644	      5.03097399	      6.13061339	      0.10699939	     10.02234611	      0.00000000	      0.00000000	     41.09794969	     -2.52830895	      6.41789902	     15.16009494	      0.26459357	     -4.58653331	      0.00000000	      0.00000000	     -3.24768406	      1.86439038	     -2.82750786	      0.00000000	      0.00000000	      0.00000000	      0.00000000	      0.00000000	      0.00000000	      0.00000000	      0.00000000	      0.00000000	      0.00000000	      0.00000000	      0.00000000	      0.00000000	      0.00000000
      0.65000000	     -3.91538165	      7.97727771	    -89.91129239	      0.19582212	      0.86393384	      0.24275300	    -18.99675111	      4.52081405	      4.50783839	      9.67561649	      0.16887136	      7.68416740	      0.00000000	      0.00000000	     40.88368665	     -2.44207495	      6.48618610	     17.23874545	      0.30087287	     -6.23606892	      0.00000000	      0.00000000	     -3.38558748	      1.75252218	     -2.82597819	      0.00000000	      0.00000000	      0.00000000	      0.00000000	      0.00000000	      0.00000000	      0.00000000	      0.00000000	      0.00000000	      0.00000000	      0.00000000	      0.00000000	      0.00000000	      0.00000000
      0.66000000	     -4.05396180	      7.52461317	    -89.90848251	      0.19669156	      0.86568659	      0.26176244	    -18.00069323	      4.33173472	      3.60569090	     13.74405916	      0.23987909	      4.96224127	      0.00000000	      0.00000000	     40.41857437	     -2.43448896	      6.48499982	     19.38406095	      0.33831569	     -7.14130714	      0.00000000	      0.00000000	     -3.75807679	      1.71067312	     -2.79278165	      0.00000000	      0.00000000	      0.00000000	      0.00000000	      0.00000000	      0.00000000	      0.00000000	      0.00000000	      0.00000000	      0.00000000	      0.00000000	      0.00000000	      0.00000000	      0.00000000
      0.67000000	     -4.17610934	      6.98449852	    -89.90578754	      0.19768321	      0.86808931	      0.28061439	    -16.69270654	      4.02185218	      2.42626269	     18.34402001	      0.32016355	      2.02722327	      0.00000000	     -0.00000000	     39.75562418	     -2.43448578	      6.48295653	     21.47162879	      0.37475062	     -7.41812963	     -0.00000000	     -0.00000000	     -4.25818978	      1.67397099	     -2.75042867	      0.00000000	     -0.00000000	     -0.00000000	      0.00000000	      0.00000000	     -0.00000000	     -0.00000000	      0.00000000	      0.00000000	      0.00000000	      0.00000000	      0.00000000	      0.00000000	      0.00000000
      0.68000000	     -4.09159748	      6.79817948	    -89.90289836	      0.19911336	      0.87034558	      0.29904060	    -14.53170344	      3.27794430	      0.62109446	     23.60381539	      0.41196429	     -1.18120940	      0.00000000	      0.00000000	     39.31726716	     -2.19356966	      6.51048571	     23.37520201	      0.40797424	     -6.82302133	     -0.00000000	     -0.00000000	     -4.34109012	      1.46549185	     -2.81231781	      0.00000000	      0.00000000	     -0.00000000	      0.00000000	      0.00000000	      0.00000000	     -0.00000000	     -0.00000000	     -0.00000000	     -0.00000000	      0.00000000	      0.00000000	      0.00000000	      0.00000000
